<svg id="Layer_1" height="512" viewBox="0 0 512 512" width="512" xmlns="http://www.w3.org/2000/svg" data-name="Layer 1"><path d="m77.7 230.84 187.37-27.83 169.8 14.29-142.75 69.9z" fill="#5dcebe"/><rect fill="#e89256" height="298.71" rx="87.99" width="175.98" x="170.65" y="67.53"/><path d="m282.13 218.63c-8.39-.43-8.94-150.52-15.74-151-8.73-.67-1.58-.51-8.74-.52s-8.59.6-8.59.6c-7.49.78-6.43 151.11-14.15 152.57-28.85 5.46-60.64 36.45-60.64 71.13s25.2 76.17 84.38 76.17 84.44-44.39 84.44-79c0-32.76-52.54-69.52-60.96-69.95z" fill="#fceade" fill-rule="evenodd"/><path d="m219.77 105 3.33 8s-24.83-5.21-46.61 21.41c0 .08 10.28-28.17 43.28-29.41z" fill="#491f14"/><path d="m294.86 105-3.32 8s24.83-5.21 46.61 21.41c0 .08-10.29-28.17-43.29-29.41z" fill="#491f14"/><path d="m321.25 93.41s87.46 64.84 101.37 155.33-47.27 131.3-81.24 112-22-66.44-2.08-145.84c20.79-82.96-18.05-121.49-18.05-121.49z" fill="#823e2e"/><path d="m348.46 214.9c12.61-50.3 3.3-84.25-6-103.2a258.67 258.67 0 0 0 -21.22-18.29s38.84 38.53 18.05 121.49c-19.9 79.41-31.88 126.55 2.08 145.85a37.77 37.77 0 0 0 22.93 4.43 36.07 36.07 0 0 1 -13.76-4.43c-33.96-19.3-21.98-66.44-2.08-145.85z" fill="#6b3227" opacity=".65"/><g opacity=".46"><path d="m406 213.19a176.36 176.36 0 0 0 -8.37-32.7c11.67 20.24 21.12 43.27 25 68.25 13.91 90.49-47.27 131.3-81.24 112-14.06-8-20.24-20.74-21.25-38.58a46.18 46.18 0 0 0 4.66 3c33.96 19.33 95.14-21.48 81.2-111.97z" fill="#6b3126"/></g><g opacity=".33"><path d="m351.6 183c0 .6 0 1.19-.05 1.77a41.07 41.07 0 0 1 -82.06-.06c0-.21 0-.44 0-.65s0-.71 0-1.06 0-.5 0-.75a40.29 40.29 0 0 1 .51-5.75c.06-.35.11-.7.18-1a.28.28 0 0 1 0-.09 41.06 41.06 0 0 1 38.72-33.4h1.64a41.09 41.09 0 0 1 41.06 40.99z" fill="#ce763a"/></g><path d="m358.76 175.55v1.06s0 .48 0 .71a41.07 41.07 0 0 1 -82.06-.07c0-.56 0-1.13 0-1.7a41.07 41.07 0 0 1 81.3-8.28c.05.22.09.46.13.68s.13.73.18 1.09a39 39 0 0 1 .52 5.76c-.07.25-.07.5-.07.75z" fill="#fff"/><path d="m358.8 179.91a41.12 41.12 0 0 1 -82.23 0 36.73 36.73 0 0 1 .2-3.94 41.1 41.1 0 0 0 81.84 0c.13 1.3.19 2.61.19 3.94z" fill="#f2f2f2"/><path d="m322.08 154.45a9.53 9.53 0 1 1 7.81 7.74 9.54 9.54 0 0 1 -7.81-7.74z" fill="#3a1811"/><path d="m300.53 222.09c-3.59 14.26-27 37.23-42.51 37.23-15.29 0-40.1-20.22-43.49-35.25-1-4.28-.26-8.12 2.91-11 10.78-9.78 67.48-11.1 81.2 0 2.43 1.98 2.88 5.18 1.89 9.02z" fill="#823e2e" fill-rule="evenodd"/><path d="m300.53 222.09c-3.59 14.26-27 37.23-42.51 37.23-15.29 0-40.1-20.22-43.49-35.25a9.83 9.83 0 0 1 2.91-4.57c10.78-9.79 67.48-11.1 81.2 0a6.33 6.33 0 0 1 1.89 2.59z" fill="#632b18" fill-rule="evenodd"/><path d="m195.92 93.41s-87.46 64.84-101.36 155.33 47.27 131.3 81.24 112 22-66.44 2.08-145.84c-20.79-82.96 18.04-121.49 18.04-121.49z" fill="#823e2e"/><path d="m168.71 214.9c-12.6-50.3-3.29-84.25 6-103.2a260.73 260.73 0 0 1 21.22-18.29s-38.83 38.53-18 121.49c19.9 79.41 31.88 126.55-2.08 145.85a37.77 37.77 0 0 1 -22.93 4.43 36.07 36.07 0 0 0 13.76-4.43c33.92-19.3 21.94-66.44 2.03-145.85z" fill="#6b3227" opacity=".65"/><g opacity=".46"><path d="m111.14 213.19a178 178 0 0 1 8.37-32.7c-11.66 20.24-21.11 43.27-25 68.25-13.91 90.49 47.27 131.3 81.24 112 14-8 20.24-20.74 21.25-38.58a45.24 45.24 0 0 1 -4.67 3c-33.91 19.33-95.09-21.48-81.19-111.97z" fill="#6b3126"/></g><g opacity=".33"><path d="m246.85 182.41v1.78a41.07 41.07 0 0 1 -79.48 12.81 40.49 40.49 0 0 1 -2.62-12.83c0-.21 0-.44 0-.65s0-.71 0-1.06 0-.5 0-.75a39 39 0 0 1 .52-5.75c.06-.35.1-.7.17-1a.28.28 0 0 1 0-.09 41.08 41.08 0 0 1 38.72-33.4h1.64a41.08 41.08 0 0 1 41.05 40.94z" fill="#ce763a"/></g><path d="m239.35 175.13v1.77a41.07 41.07 0 0 1 -82.06-.07c0-.21 0-.43 0-.64s0-.71 0-1.06 0-.5 0-.76a40.42 40.42 0 0 1 .51-5.75c.06-.35.11-.7.18-1a.34.34 0 0 1 0-.1 41.09 41.09 0 0 1 38.72-33.4h1.64a41.08 41.08 0 0 1 41.01 41.01z" fill="#fff"/><path d="m157.17 179.48a41.11 41.11 0 1 0 82.22 0 39.33 39.33 0 0 0 -.19-3.93 41.1 41.1 0 0 1 -81.84 0 39.33 39.33 0 0 0 -.19 3.93z" fill="#f2f2f2"/><path d="m204.73 154.45a9.53 9.53 0 1 1 7.82 7.74 9.54 9.54 0 0 1 -7.82-7.74z" fill="#3a1811"/><ellipse cx="280.31" cy="232.29" fill="#823e2e" rx="4.75" ry="6.59"/><ellipse cx="279.89" cy="232.29" fill="#4f2014" rx="4.32" ry="6.59"/><ellipse cx="233.86" cy="232.29" fill="#823e2e" rx="4.75" ry="6.59"/><ellipse cx="233.44" cy="232.29" fill="#4f2014" rx="4.32" ry="6.59"/><path d="m435.63 233.14v213.07l-145.47 59.79-3.06-229.43z" fill="#6fddcb"/><path d="m77.7 233.14v213.08l212.46 59.78-3.06-229.43z" fill="#5dcebe"/><path d="m77.7 230.84-33.5 106.72 217.83 55.77 25.84-118.04z" fill="#86f2dd"/><path d="m287.87 275.29 26.41 118.04 153.52-70.5-32.93-105.53z" fill="#86f2dd"/><path d="m379.88 230.76c-.09-.09-.19-.16-.28-.24a33.87 33.87 0 0 0 -7.85-5 28.9 28.9 0 0 0 -12.75-3.24c-.48 0-1 0-1.48 0a43 43 0 0 0 -10.52 1.3c-9.52 2.41-17.13 7.54-20.9 13.4a41.38 41.38 0 0 0 -4.7 11.16 35.57 35.57 0 0 0 -1.26 9.17 28.31 28.31 0 0 0 7.44 19.32c5 5.6 10.12 6.68 14.46 4.06 2-1.2 5.16-5.19 6.22-8.63l.69-1.93a.17.17 0 0 0 .05.06 18.27 18.27 0 0 0 2.73 2.84c3.31 2.78 6.52 4.27 9.58 4a3.8 3.8 0 0 0 .46-.05 8.63 8.63 0 0 0 3.64-1.39c2-1.27 4.31-5.94 5.07-9.38.18.17.35.34.52.47 2.73 2.41 7.74 4.84 9.89 5a7 7 0 0 0 2.12-.2c4.4-.86 8.63-5.16 9-12.12.73-14.47-6.19-23.53-12.13-28.6z" fill="#fff2e9"/><path d="m370.5 266.26s-8.77-14-6.77-26.71c0 0 5.46 26.15 19.31 32-.04-.04-4.52 2.66-12.54-5.29z" fill="#fcd2b6"/><path d="m349 270.24s-8.77-14-6.77-26.71c0 0 5.68 27.68 19.53 33.49.01-.02-6.6 1.36-12.76-6.78z" fill="#fcd2b6"/><path d="m128.8 254.41c.35 7 4.58 11.26 9 12.12a7 7 0 0 0 2.12.2c2.15-.13 7.16-2.56 9.89-5a5.52 5.52 0 0 0 .52-.47c.76 3.44 3.1 8.11 5.07 9.38a8.67 8.67 0 0 0 3.65 1.39 3.44 3.44 0 0 0 .45.05c3.06.23 6.27-1.26 9.59-4a18.27 18.27 0 0 0 2.73-2.84v-.06l.7 1.93c1.06 3.44 4.24 7.43 6.22 8.63 4.33 2.62 9.45 1.54 14.46-4.06a28.34 28.34 0 0 0 7.43-19.32 36 36 0 0 0 -1.25-9.17 41.58 41.58 0 0 0 -4.67-11.19c-3.77-5.86-11.38-11-20.9-13.4a42.94 42.94 0 0 0 -10.49-1.32c-.5 0-1 0-1.47 0a28.91 28.91 0 0 0 -12.8 3.23 33.71 33.71 0 0 0 -7.84 5c-.09.08-.2.15-.29.24-5.92 5.12-12.85 14.18-12.12 28.66z" fill="#fff2e9"/><path d="m150.31 261.3s8.77-14 6.76-26.71c0 0-5.46 26.15-19.31 32 0-.04 4.53 2.66 12.55-5.29z" fill="#fcd2b6"/><path d="m171.8 265.28s8.77-14 6.76-26.71c0 0-5.67 27.68-19.53 33.49-.03 0 6.61 1.36 12.77-6.78z" fill="#fcd2b6"/><g fill="#cdebfc"><path d="m258 6a5.22 5.22 0 0 0 -5.1 5.3l.33 17.7a5.22 5.22 0 0 0 5.3 5.1 4.93 4.93 0 0 0 5.1-5.31l-.36-17.67a5.2 5.2 0 0 0 -5.27-5.12z"/><path d="m189 39.11a5.15 5.15 0 1 0 -7.13 7.43l12.72 12.22a5.15 5.15 0 0 0 7.13-7.43z"/><path d="m328.25 36.29-12.25 12.71a5.15 5.15 0 1 0 7.42 7.13l12.22-12.73a5.15 5.15 0 0 0 -7.42-7.13z"/></g></svg>